<?xml version="1.0" standalone="no"?>
<!DOCTYPE svg PUBLIC "-//W3C//DTD SVG 20010904//EN"
 "http://www.w3.org/TR/2001/REC-SVG-20010904/DTD/svg10.dtd">
<svg version="1.0" xmlns="http://www.w3.org/2000/svg"
 width="1024.000000pt" height="1024.000000pt" viewBox="0 0 1024.000000 1024.000000"
 preserveAspectRatio="xMidYMid meet">
<metadata>
Created by potrace 1.16, written by Peter Selinger 2001-2019
</metadata>
<g transform="translate(0.000000,1024.000000) scale(0.100000,-0.100000)"
fill="#000000" stroke="none">
<path d="M1288 9012 l-1288 -1227 0 -2832 c0 -2484 2 -2846 15 -2950 99 -761
571 -1422 1265 -1768 224 -112 471 -187 723 -220 104 -13 484 -15 3117 -15
2633 0 3013 2 3117 15 419 55 826 229 1158 498 114 92 299 285 387 403 239
322 392 698 443 1087 13 104 15 481 15 3117 0 2636 -2 3013 -15 3117 -51 389
-204 765 -443 1087 -88 118 -273 311 -387 403 -332 269 -739 443 -1158 498
-103 13 -460 15 -2890 15 l-2772 0 -1287 -1228z m5367 -1106 c150 -51 195 -86
510 -395 1172 -1149 1811 -1784 1844 -1831 98 -140 141 -273 141 -435 0 -156
-40 -292 -123 -415 -34 -51 -551 -590 -565 -590 -4 0 -25 34 -47 76 -71 136
-183 252 -316 327 l-57 31 244 249 c331 337 328 308 61 572 -1104 1094 -1842
1811 -1875 1824 -25 9 -52 12 -77 7 -36 -6 -70 -38 -332 -304 l-292 -297 -215
215 -216 215 300 307 c358 366 411 406 605 459 107 29 301 22 410 -15z m-2680
-6 c96 -25 164 -55 246 -111 59 -40 2013 -1955 2137 -2095 180 -201 226 -519
112 -770 -48 -106 -104 -173 -398 -473 l-278 -283 -217 213 -218 214 269 275
c148 151 274 285 280 297 13 24 15 65 5 101 -3 13 -457 468 -1021 1023 -874
860 -1022 1001 -1056 1010 -80 21 -91 13 -378 -281 -145 -149 -266 -270 -270
-270 -3 0 -11 15 -17 33 -36 108 -205 296 -335 371 l-67 39 253 256 c139 141
277 277 306 303 68 59 191 123 284 148 102 26 260 26 363 0z m-1375 -920 c176
-51 332 -224 371 -408 14 -71 7 -191 -17 -262 -41 -123 -155 -242 -281 -291
-84 -33 -250 -34 -345 -1 -188 65 -331 239 -359 438 -30 208 78 411 263 499
119 57 232 64 368 25z m2082 -927 c114 -114 208 -212 208 -217 0 -5 -130 -140
-289 -300 -309 -312 -312 -317 -291 -395 7 -28 47 -74 172 -196 90 -88 542
-534 1005 -990 648 -638 853 -834 887 -849 84 -36 84 -36 392 274 153 154 280
280 283 280 3 0 21 -26 40 -56 81 -135 198 -242 340 -311 l74 -36 -329 -327
-329 -328 -95 -45 c-113 -54 -210 -77 -322 -77 -139 0 -270 37 -395 111 -39
23 -226 200 -582 548 -992 971 -1572 1546 -1612 1598 -47 63 -101 167 -124
243 -25 82 -31 258 -11 350 19 87 77 214 131 285 47 61 616 644 629 645 6 0
104 -93 218 -207z m-2876 95 c65 -131 223 -277 370 -345 l55 -25 -110 -116
c-60 -65 -175 -182 -256 -262 -81 -80 -153 -157 -161 -172 -15 -28 -18 -86 -8
-126 4 -12 461 -470 1016 -1017 1095 -1079 1042 -1032 1127 -1006 32 9 95 67
339 316 164 168 303 305 308 305 5 0 103 -94 218 -209 l210 -210 -131 -138
c-274 -288 -535 -538 -608 -581 -114 -66 -211 -94 -345 -100 -122 -4 -193 7
-303 48 -127 48 -178 92 -872 775 -1534 1508 -1463 1435 -1527 1587 -96 228
-70 502 66 698 43 62 570 610 587 610 4 0 16 -15 25 -32z m6070 -1688 c162
-56 290 -185 345 -348 31 -91 31 -231 0 -316 -129 -357 -583 -433 -848 -142
-274 300 -120 770 272 830 55 8 173 -4 231 -24z"/>
</g>
</svg>
